<svg width="500" height="300" viewBox="0 0 500 300" fill="none" xmlns="http://www.w3.org/2000/svg">
<g id="Frame 1">
<rect width="500" height="300" fill="#09090B"/>
<g id="Group 2">
<g id="Group 1">
<g id="Imobiliary">
<path id="Vector" d="M379.459 150.8V146.48H382.379C383.073 146.48 383.606 146.373 383.979 146.16C384.379 145.973 384.673 145.6 384.859 145.04L385.419 143.44H383.739L376.219 123.36H381.859L387.099 138.24L391.939 123.36H397.579L389.339 146.68C388.833 148.173 388.046 149.227 386.979 149.84C385.939 150.48 384.593 150.8 382.939 150.8H379.459Z" fill="white"/>
<path id="Vector_2" d="M358.875 144.8V123.36H362.875L363.315 128.96H362.955C363.168 127.093 363.702 125.693 364.555 124.76C365.435 123.827 366.715 123.36 368.395 123.36H373.195V127.8H368.795C367.782 127.8 366.942 127.973 366.275 128.32C365.608 128.667 365.115 129.187 364.795 129.88C364.475 130.573 364.315 131.44 364.315 132.48V144.8H358.875ZM353.755 144.8V140.48H370.835V144.8H353.755ZM353.755 127.68V123.36H362.115V127.68H353.755Z" fill="white"/>
<path id="Vector_3" d="M335.851 145.28C334.544 145.28 333.344 145.04 332.251 144.56C331.157 144.08 330.291 143.387 329.651 142.48C329.037 141.573 328.731 140.493 328.731 139.24C328.731 137.427 329.304 136.013 330.451 135C331.624 133.987 333.224 133.267 335.251 132.84L341.691 131.44C341.691 130.08 341.411 129.04 340.851 128.32C340.317 127.6 339.437 127.24 338.211 127.24C337.144 127.24 336.317 127.507 335.731 128.04C335.144 128.573 334.757 129.28 334.571 130.16L328.971 129.84C329.371 127.733 330.371 126.053 331.971 124.8C333.597 123.52 335.651 122.88 338.131 122.88C341.224 122.88 343.491 123.667 344.931 125.24C346.397 126.787 347.131 128.96 347.131 131.76V139.32C347.131 139.853 347.224 140.227 347.411 140.44C347.597 140.627 347.877 140.72 348.251 140.72H349.131V144.8C348.971 144.827 348.704 144.853 348.331 144.88C347.957 144.933 347.571 144.96 347.171 144.96C346.104 144.96 345.197 144.773 344.451 144.4C343.704 144.027 343.131 143.48 342.731 142.76C342.357 142.04 342.144 141.173 342.091 140.16H342.691C342.557 141.12 342.197 142 341.611 142.8C341.024 143.573 340.237 144.187 339.251 144.64C338.264 145.067 337.131 145.28 335.851 145.28ZM336.971 141.2C337.984 141.2 338.837 141.027 339.531 140.68C340.224 140.307 340.757 139.773 341.131 139.08C341.504 138.36 341.691 137.52 341.691 136.56V135.28L336.931 136.32C335.971 136.533 335.291 136.84 334.891 137.24C334.491 137.64 334.291 138.213 334.291 138.96C334.291 139.653 334.517 140.2 334.971 140.6C335.424 141 336.091 141.2 336.971 141.2Z" fill="white"/>
<path id="Vector_4" d="M313.586 144.8V123.36H319.026V144.8H313.586ZM305.626 144.8V140.48H325.786V144.8H305.626ZM306.026 127.68V123.36H318.026V127.68H306.026ZM313.426 120.72V116H318.946V120.72H313.426Z" fill="white"/>
<path id="Vector_5" d="M288.762 144.8V123.2C288.762 122.373 288.549 121.76 288.122 121.36C287.695 120.933 287.082 120.72 286.282 120.72H281.642V116.4H287.242C289.562 116.4 291.295 116.987 292.442 118.16C293.615 119.307 294.202 121.027 294.202 123.32V144.8H288.762ZM280.842 144.8V140.48H301.002V144.8H280.842Z" fill="white"/>
<path id="Vector_6" d="M265.618 144.8V123.36H271.058V144.8H265.618ZM257.658 144.8V140.48H277.818V144.8H257.658ZM258.058 127.68V123.36H270.058V127.68H258.058ZM265.458 120.72V116H270.978V120.72H265.458Z" fill="white"/>
<path id="Vector_7" d="M245.313 145.28C243.766 145.28 242.46 144.92 241.393 144.2C240.326 143.48 239.513 142.547 238.953 141.4L238.793 144.8H233.593V116.4H239.033V126.4C239.566 125.36 240.366 124.52 241.433 123.88C242.526 123.213 243.82 122.88 245.313 122.88C247.02 122.88 248.513 123.32 249.793 124.2C251.073 125.08 252.06 126.36 252.753 128.04C253.473 129.693 253.833 131.707 253.833 134.08C253.833 136.453 253.473 138.48 252.753 140.16C252.06 141.813 251.073 143.08 249.793 143.96C248.513 144.84 247.02 145.28 245.313 145.28ZM243.753 140.48C245.22 140.48 246.326 139.933 247.073 138.84C247.82 137.72 248.193 136.133 248.193 134.08C248.193 132 247.82 130.413 247.073 129.32C246.326 128.227 245.22 127.68 243.753 127.68C242.82 127.68 241.993 127.92 241.273 128.4C240.553 128.88 239.993 129.6 239.593 130.56C239.22 131.52 239.033 132.693 239.033 134.08C239.033 135.44 239.22 136.6 239.593 137.56C239.993 138.52 240.54 139.253 241.233 139.76C241.953 140.24 242.793 140.48 243.753 140.48Z" fill="white"/>
<path id="Vector_8" d="M218.969 145.28C216.942 145.28 215.169 144.827 213.649 143.92C212.129 142.987 210.942 141.68 210.089 140C209.235 138.32 208.809 136.347 208.809 134.08C208.809 131.787 209.235 129.813 210.089 128.16C210.942 126.48 212.129 125.187 213.649 124.28C215.169 123.347 216.942 122.88 218.969 122.88C220.995 122.88 222.769 123.347 224.289 124.28C225.809 125.187 226.995 126.48 227.849 128.16C228.702 129.813 229.129 131.787 229.129 134.08C229.129 136.347 228.702 138.32 227.849 140C226.995 141.68 225.809 142.987 224.289 143.92C222.769 144.827 220.995 145.28 218.969 145.28ZM218.969 140.48C220.409 140.48 221.515 139.933 222.289 138.84C223.089 137.72 223.489 136.133 223.489 134.08C223.489 132 223.089 130.413 222.289 129.32C221.515 128.227 220.409 127.68 218.969 127.68C217.529 127.68 216.409 128.227 215.609 129.32C214.835 130.413 214.449 132 214.449 134.08C214.449 136.133 214.835 137.72 215.609 138.84C216.409 139.933 217.529 140.48 218.969 140.48Z" fill="white"/>
<path id="Vector_9" d="M184.104 144.8V123.36H188.544L188.704 128.28L188.264 128.16C188.584 126.4 189.118 125.08 189.864 124.2C190.638 123.32 191.598 122.88 192.744 122.88C194.078 122.88 195.038 123.333 195.624 124.24C196.238 125.12 196.651 126.48 196.864 128.32H196.264C196.558 126.533 197.144 125.187 198.024 124.28C198.904 123.347 199.984 122.88 201.264 122.88C202.838 122.88 203.998 123.453 204.744 124.6C205.491 125.72 205.864 127.493 205.864 129.92V144.8H200.784V131C200.784 129.613 200.651 128.68 200.384 128.2C200.144 127.72 199.758 127.48 199.224 127.48C198.851 127.48 198.518 127.6 198.224 127.84C197.958 128.08 197.744 128.467 197.584 129C197.424 129.507 197.344 130.187 197.344 131.04V144.8H192.624V131C192.624 129.667 192.504 128.747 192.264 128.24C192.024 127.733 191.624 127.48 191.064 127.48C190.691 127.48 190.358 127.6 190.064 127.84C189.771 128.08 189.544 128.467 189.384 129C189.251 129.507 189.184 130.187 189.184 131.04V144.8H184.104Z" fill="white"/>
<path id="Vector_10" d="M161.96 144.8V139.68H168.16V121.52H161.96V116.4H180.04V121.52H173.84V139.68H180.04V144.8H161.96Z" fill="white"/>
</g>
<path id="Vector_11" d="M126.711 111.874C125.906 111.287 124.914 110.979 123.899 111.001C122.884 111.023 121.907 111.373 121.131 111.994L105.576 124.624C105.082 125.02 104.685 125.512 104.413 126.068C104.141 126.624 104 127.229 104 127.841V146.789C104 147.906 104.468 148.977 105.302 149.767C106.135 150.556 107.266 151 108.444 151H139.556C140.734 151 141.865 150.556 142.698 149.767C143.532 148.977 144 147.906 144 146.789V131.307M130.667 151V134.157C130.667 133.599 130.433 133.063 130.016 132.669C129.599 132.274 129.034 132.052 128.444 132.052H119.556C118.966 132.052 118.401 132.274 117.984 132.669C117.567 133.063 117.333 133.599 117.333 134.157V151M130.667 119.42H144M137.333 113.104V125.736" stroke="white" stroke-width="4" stroke-linecap="round" stroke-linejoin="round"/>
</g>
<path id="Gerencie seus im&#195;&#179;veis com efici&#195;&#170;ncia" d="M103.172 186.224C102.472 186.224 101.847 186.033 101.296 185.65C100.755 185.258 100.325 184.679 100.008 183.914C99.6907 183.139 99.532 182.183 99.532 181.044C99.532 179.971 99.6767 179.047 99.966 178.272C100.265 177.497 100.689 176.9 101.24 176.48C101.791 176.051 102.453 175.836 103.228 175.836C103.835 175.836 104.371 175.971 104.838 176.242C105.314 176.513 105.711 176.891 106.028 177.376C106.345 177.852 106.574 178.403 106.714 179.028L105.454 179.112C105.295 178.496 105.029 177.992 104.656 177.6C104.292 177.208 103.816 177.012 103.228 177.012C102.715 177.012 102.276 177.171 101.912 177.488C101.548 177.796 101.268 178.253 101.072 178.86C100.885 179.457 100.792 180.185 100.792 181.044C100.792 181.893 100.89 182.617 101.086 183.214C101.282 183.811 101.562 184.269 101.926 184.586C102.299 184.894 102.752 185.048 103.284 185.048C103.76 185.048 104.166 184.927 104.502 184.684C104.847 184.432 105.118 184.087 105.314 183.648C105.51 183.2 105.617 182.691 105.636 182.122H103.256V180.974H106.756V186H105.636L105.58 183.648L105.916 183.76C105.785 184.236 105.603 184.661 105.37 185.034C105.146 185.407 104.852 185.701 104.488 185.916C104.133 186.121 103.695 186.224 103.172 186.224ZM111.721 186.168C111.021 186.168 110.414 186.009 109.901 185.692C109.397 185.375 109.005 184.927 108.725 184.348C108.454 183.76 108.319 183.074 108.319 182.29C108.319 181.506 108.454 180.825 108.725 180.246C109.005 179.667 109.392 179.219 109.887 178.902C110.391 178.575 110.983 178.412 111.665 178.412C112.309 178.412 112.878 178.566 113.373 178.874C113.867 179.173 114.255 179.611 114.535 180.19C114.815 180.769 114.955 181.473 114.955 182.304V182.654H109.551C109.597 183.447 109.807 184.045 110.181 184.446C110.563 184.847 111.077 185.048 111.721 185.048C112.206 185.048 112.603 184.936 112.911 184.712C113.228 184.479 113.447 184.175 113.569 183.802L114.829 183.9C114.633 184.563 114.259 185.109 113.709 185.538C113.167 185.958 112.505 186.168 111.721 186.168ZM109.551 181.618H113.667C113.611 180.899 113.401 180.372 113.037 180.036C112.673 179.7 112.215 179.532 111.665 179.532C111.095 179.532 110.624 179.709 110.251 180.064C109.887 180.409 109.653 180.927 109.551 181.618ZM118.981 186V178.58H119.961L120.073 180.456L119.961 180.428C120.054 179.793 120.255 179.327 120.563 179.028C120.88 178.729 121.3 178.58 121.823 178.58H123.349V179.644H121.837C121.473 179.644 121.165 179.719 120.913 179.868C120.67 180.008 120.484 180.218 120.353 180.498C120.222 180.769 120.157 181.109 120.157 181.52V186H118.981ZM117.049 186V184.964H122.509V186H117.049ZM117.049 179.616V178.58H119.625V179.616H117.049ZM128.51 186.168C127.81 186.168 127.203 186.009 126.69 185.692C126.186 185.375 125.794 184.927 125.514 184.348C125.243 183.76 125.108 183.074 125.108 182.29C125.108 181.506 125.243 180.825 125.514 180.246C125.794 179.667 126.181 179.219 126.676 178.902C127.18 178.575 127.772 178.412 128.454 178.412C129.098 178.412 129.667 178.566 130.162 178.874C130.656 179.173 131.044 179.611 131.324 180.19C131.604 180.769 131.744 181.473 131.744 182.304V182.654H126.34C126.386 183.447 126.596 184.045 126.97 184.446C127.352 184.847 127.866 185.048 128.51 185.048C128.995 185.048 129.392 184.936 129.7 184.712C130.017 184.479 130.236 184.175 130.358 183.802L131.618 183.9C131.422 184.563 131.048 185.109 130.498 185.538C129.956 185.958 129.294 186.168 128.51 186.168ZM126.34 181.618H130.456C130.4 180.899 130.19 180.372 129.826 180.036C129.462 179.7 129.004 179.532 128.454 179.532C127.884 179.532 127.413 179.709 127.04 180.064C126.676 180.409 126.442 180.927 126.34 181.618ZM133.754 186V178.58H134.832L134.874 180.47L134.734 180.344C134.827 179.905 134.995 179.546 135.238 179.266C135.49 178.977 135.789 178.762 136.134 178.622C136.479 178.482 136.843 178.412 137.226 178.412C137.795 178.412 138.267 178.538 138.64 178.79C139.023 179.042 139.312 179.383 139.508 179.812C139.704 180.232 139.802 180.703 139.802 181.226V186H138.626V181.562C138.626 180.871 138.491 180.349 138.22 179.994C137.949 179.63 137.534 179.448 136.974 179.448C136.591 179.448 136.246 179.532 135.938 179.7C135.63 179.859 135.383 180.097 135.196 180.414C135.019 180.722 134.93 181.105 134.93 181.562V186H133.754ZM145.369 186.168C144.678 186.168 144.076 186.009 143.563 185.692C143.049 185.375 142.653 184.927 142.373 184.348C142.093 183.76 141.953 183.074 141.953 182.29C141.953 181.506 142.093 180.825 142.373 180.246C142.653 179.667 143.049 179.219 143.563 178.902C144.076 178.575 144.678 178.412 145.369 178.412C145.919 178.412 146.409 178.515 146.839 178.72C147.268 178.916 147.623 179.205 147.903 179.588C148.183 179.971 148.374 180.437 148.477 180.988L147.245 181.072C147.133 180.577 146.909 180.199 146.573 179.938C146.246 179.667 145.845 179.532 145.369 179.532C144.687 179.532 144.151 179.779 143.759 180.274C143.376 180.759 143.185 181.431 143.185 182.29C143.185 183.149 143.376 183.825 143.759 184.32C144.151 184.805 144.687 185.048 145.369 185.048C145.845 185.048 146.255 184.908 146.601 184.628C146.955 184.348 147.189 183.928 147.301 183.368L148.533 183.452C148.43 184.003 148.234 184.483 147.945 184.894C147.655 185.295 147.291 185.608 146.853 185.832C146.414 186.056 145.919 186.168 145.369 186.168ZM153.469 186V178.58H154.645V186H153.469ZM150.487 186V184.964H157.207V186H150.487ZM150.627 179.616V178.58H154.645V179.616H150.627ZM153.357 177.418V176.046H154.589V177.418H153.357ZM162.088 186.168C161.388 186.168 160.781 186.009 160.268 185.692C159.764 185.375 159.372 184.927 159.092 184.348C158.821 183.76 158.686 183.074 158.686 182.29C158.686 181.506 158.821 180.825 159.092 180.246C159.372 179.667 159.759 179.219 160.254 178.902C160.758 178.575 161.35 178.412 162.032 178.412C162.676 178.412 163.245 178.566 163.74 178.874C164.234 179.173 164.622 179.611 164.902 180.19C165.182 180.769 165.322 181.473 165.322 182.304V182.654H159.918C159.964 183.447 160.174 184.045 160.548 184.446C160.93 184.847 161.444 185.048 162.088 185.048C162.573 185.048 162.97 184.936 163.278 184.712C163.595 184.479 163.814 184.175 163.936 183.802L165.196 183.9C165 184.563 164.626 185.109 164.076 185.538C163.534 185.958 162.872 186.168 162.088 186.168ZM159.918 181.618H164.034C163.978 180.899 163.768 180.372 163.404 180.036C163.04 179.7 162.582 179.532 162.032 179.532C161.462 179.532 160.991 179.709 160.618 180.064C160.254 180.409 160.02 180.927 159.918 181.618ZM178.891 186.168C178.247 186.168 177.691 186.056 177.225 185.832C176.758 185.608 176.389 185.309 176.119 184.936C175.857 184.553 175.708 184.129 175.671 183.662L176.903 183.578C176.977 184.035 177.178 184.395 177.505 184.656C177.841 184.917 178.303 185.048 178.891 185.048C179.441 185.048 179.866 184.969 180.165 184.81C180.473 184.651 180.627 184.404 180.627 184.068C180.627 183.853 180.575 183.676 180.473 183.536C180.37 183.396 180.179 183.279 179.899 183.186C179.619 183.083 179.208 182.985 178.667 182.892C177.948 182.761 177.383 182.603 176.973 182.416C176.571 182.22 176.287 181.977 176.119 181.688C175.951 181.399 175.867 181.053 175.867 180.652C175.867 180.223 175.974 179.84 176.189 179.504C176.403 179.168 176.721 178.902 177.141 178.706C177.561 178.51 178.074 178.412 178.681 178.412C179.297 178.412 179.81 178.524 180.221 178.748C180.641 178.963 180.972 179.252 181.215 179.616C181.457 179.971 181.616 180.363 181.691 180.792L180.459 180.876C180.403 180.615 180.295 180.386 180.137 180.19C179.987 179.985 179.787 179.826 179.535 179.714C179.292 179.593 179.003 179.532 178.667 179.532C178.125 179.532 177.724 179.639 177.463 179.854C177.201 180.069 177.071 180.335 177.071 180.652C177.071 180.904 177.131 181.105 177.253 181.254C177.374 181.403 177.57 181.525 177.841 181.618C178.111 181.702 178.471 181.781 178.919 181.856C179.684 181.977 180.277 182.136 180.697 182.332C181.117 182.519 181.411 182.752 181.579 183.032C181.747 183.312 181.831 183.657 181.831 184.068C181.831 184.507 181.7 184.885 181.439 185.202C181.187 185.51 180.837 185.748 180.389 185.916C179.95 186.084 179.451 186.168 178.891 186.168ZM187.271 186.168C186.571 186.168 185.965 186.009 185.451 185.692C184.947 185.375 184.555 184.927 184.275 184.348C184.005 183.76 183.869 183.074 183.869 182.29C183.869 181.506 184.005 180.825 184.275 180.246C184.555 179.667 184.943 179.219 185.437 178.902C185.941 178.575 186.534 178.412 187.215 178.412C187.859 178.412 188.429 178.566 188.923 178.874C189.418 179.173 189.805 179.611 190.085 180.19C190.365 180.769 190.505 181.473 190.505 182.304V182.654H185.101C185.148 183.447 185.358 184.045 185.731 184.446C186.114 184.847 186.627 185.048 187.271 185.048C187.757 185.048 188.153 184.936 188.461 184.712C188.779 184.479 188.998 184.175 189.119 183.802L190.379 183.9C190.183 184.563 189.81 185.109 189.259 185.538C188.718 185.958 188.055 186.168 187.271 186.168ZM185.101 181.618H189.217C189.161 180.899 188.951 180.372 188.587 180.036C188.223 179.7 187.766 179.532 187.215 179.532C186.646 179.532 186.175 179.709 185.801 180.064C185.437 180.409 185.204 180.927 185.101 181.618ZM195.022 186.168C194.285 186.168 193.697 185.921 193.258 185.426C192.819 184.922 192.6 184.231 192.6 183.354V178.58H193.776V183.032C193.776 183.751 193.902 184.283 194.154 184.628C194.415 184.964 194.812 185.132 195.344 185.132C195.923 185.132 196.38 184.945 196.716 184.572C197.052 184.189 197.22 183.667 197.22 183.004V178.58H198.396V186H197.276V184.166L197.458 184.264C197.309 184.871 197.024 185.342 196.604 185.678C196.184 186.005 195.657 186.168 195.022 186.168ZM204.074 186.168C203.43 186.168 202.875 186.056 202.408 185.832C201.942 185.608 201.573 185.309 201.302 184.936C201.041 184.553 200.892 184.129 200.854 183.662L202.086 183.578C202.161 184.035 202.362 184.395 202.688 184.656C203.024 184.917 203.486 185.048 204.074 185.048C204.625 185.048 205.05 184.969 205.348 184.81C205.656 184.651 205.81 184.404 205.81 184.068C205.81 183.853 205.759 183.676 205.656 183.536C205.554 183.396 205.362 183.279 205.082 183.186C204.802 183.083 204.392 182.985 203.85 182.892C203.132 182.761 202.567 182.603 202.156 182.416C201.755 182.22 201.47 181.977 201.302 181.688C201.134 181.399 201.05 181.053 201.05 180.652C201.05 180.223 201.158 179.84 201.372 179.504C201.587 179.168 201.904 178.902 202.324 178.706C202.744 178.51 203.258 178.412 203.864 178.412C204.48 178.412 204.994 178.524 205.404 178.748C205.824 178.963 206.156 179.252 206.398 179.616C206.641 179.971 206.8 180.363 206.874 180.792L205.642 180.876C205.586 180.615 205.479 180.386 205.32 180.19C205.171 179.985 204.97 179.826 204.718 179.714C204.476 179.593 204.186 179.532 203.85 179.532C203.309 179.532 202.908 179.639 202.646 179.854C202.385 180.069 202.254 180.335 202.254 180.652C202.254 180.904 202.315 181.105 202.436 181.254C202.558 181.403 202.754 181.525 203.024 181.618C203.295 181.702 203.654 181.781 204.102 181.856C204.868 181.977 205.46 182.136 205.88 182.332C206.3 182.519 206.594 182.752 206.762 183.032C206.93 183.312 207.014 183.657 207.014 184.068C207.014 184.507 206.884 184.885 206.622 185.202C206.37 185.51 206.02 185.748 205.572 185.916C205.134 186.084 204.634 186.168 204.074 186.168ZM220.625 186V178.58H221.801V186H220.625ZM217.643 186V184.964H224.363V186H217.643ZM217.783 179.616V178.58H221.801V179.616H217.783ZM220.513 177.418V176.046H221.745V177.418H220.513ZM225.478 186V178.58H226.556L226.598 180.232L226.458 180.204C226.542 179.653 226.719 179.219 226.99 178.902C227.27 178.575 227.625 178.412 228.054 178.412C228.493 178.412 228.829 178.571 229.062 178.888C229.305 179.205 229.454 179.672 229.51 180.288H229.37C229.454 179.709 229.641 179.252 229.93 178.916C230.229 178.58 230.602 178.412 231.05 178.412C231.647 178.412 232.081 178.617 232.352 179.028C232.623 179.439 232.758 180.12 232.758 181.072V186H231.582V181.24C231.582 180.577 231.512 180.115 231.372 179.854C231.232 179.583 231.013 179.448 230.714 179.448C230.518 179.448 230.345 179.513 230.196 179.644C230.047 179.765 229.925 179.961 229.832 180.232C229.748 180.503 229.706 180.848 229.706 181.268V186H228.53V181.24C228.53 180.605 228.46 180.148 228.32 179.868C228.189 179.588 227.97 179.448 227.662 179.448C227.466 179.448 227.293 179.513 227.144 179.644C226.995 179.765 226.873 179.961 226.78 180.232C226.696 180.503 226.654 180.848 226.654 181.268V186H225.478ZM237.513 186.168C236.831 186.168 236.234 186.009 235.721 185.692C235.217 185.375 234.825 184.927 234.545 184.348C234.265 183.76 234.125 183.074 234.125 182.29C234.125 181.497 234.265 180.811 234.545 180.232C234.825 179.653 235.217 179.205 235.721 178.888C236.234 178.571 236.831 178.412 237.513 178.412C238.194 178.412 238.787 178.571 239.291 178.888C239.804 179.205 240.201 179.653 240.481 180.232C240.761 180.811 240.901 181.497 240.901 182.29C240.901 183.074 240.761 183.76 240.481 184.348C240.201 184.927 239.804 185.375 239.291 185.692C238.787 186.009 238.194 186.168 237.513 186.168ZM237.513 185.048C238.194 185.048 238.721 184.805 239.095 184.32C239.477 183.825 239.669 183.149 239.669 182.29C239.669 181.431 239.477 180.759 239.095 180.274C238.721 179.779 238.194 179.532 237.513 179.532C236.831 179.532 236.299 179.779 235.917 180.274C235.543 180.759 235.357 181.431 235.357 182.29C235.357 183.149 235.543 183.825 235.917 184.32C236.299 184.805 236.831 185.048 237.513 185.048ZM236.981 177.6L237.905 175.808H239.221L237.961 177.6H236.981ZM245.165 186L242.407 178.58H243.695L245.907 184.796L248.119 178.58H249.407L246.649 186H245.165ZM254.428 186.168C253.728 186.168 253.121 186.009 252.608 185.692C252.104 185.375 251.712 184.927 251.432 184.348C251.161 183.76 251.026 183.074 251.026 182.29C251.026 181.506 251.161 180.825 251.432 180.246C251.712 179.667 252.099 179.219 252.594 178.902C253.098 178.575 253.69 178.412 254.372 178.412C255.016 178.412 255.585 178.566 256.08 178.874C256.574 179.173 256.962 179.611 257.242 180.19C257.522 180.769 257.662 181.473 257.662 182.304V182.654H252.258C252.304 183.447 252.514 184.045 252.888 184.446C253.27 184.847 253.784 185.048 254.428 185.048C254.913 185.048 255.31 184.936 255.618 184.712C255.935 184.479 256.154 184.175 256.276 183.802L257.536 183.9C257.34 184.563 256.966 185.109 256.416 185.538C255.874 185.958 255.212 186.168 254.428 186.168ZM252.258 181.618H256.374C256.318 180.899 256.108 180.372 255.744 180.036C255.38 179.7 254.922 179.532 254.372 179.532C253.802 179.532 253.331 179.709 252.958 180.064C252.594 180.409 252.36 180.927 252.258 181.618ZM262.598 186V178.58H263.774V186H262.598ZM259.616 186V184.964H266.336V186H259.616ZM259.756 179.616V178.58H263.774V179.616H259.756ZM262.486 177.418V176.046H263.718V177.418H262.486ZM271.231 186.168C270.587 186.168 270.031 186.056 269.565 185.832C269.098 185.608 268.729 185.309 268.459 184.936C268.197 184.553 268.048 184.129 268.011 183.662L269.243 183.578C269.317 184.035 269.518 184.395 269.845 184.656C270.181 184.917 270.643 185.048 271.231 185.048C271.781 185.048 272.206 184.969 272.505 184.81C272.813 184.651 272.967 184.404 272.967 184.068C272.967 183.853 272.915 183.676 272.813 183.536C272.71 183.396 272.519 183.279 272.239 183.186C271.959 183.083 271.548 182.985 271.007 182.892C270.288 182.761 269.723 182.603 269.313 182.416C268.911 182.22 268.627 181.977 268.459 181.688C268.291 181.399 268.207 181.053 268.207 180.652C268.207 180.223 268.314 179.84 268.529 179.504C268.743 179.168 269.061 178.902 269.481 178.706C269.901 178.51 270.414 178.412 271.021 178.412C271.637 178.412 272.15 178.524 272.561 178.748C272.981 178.963 273.312 179.252 273.555 179.616C273.797 179.971 273.956 180.363 274.031 180.792L272.799 180.876C272.743 180.615 272.635 180.386 272.477 180.19C272.327 179.985 272.127 179.826 271.875 179.714C271.632 179.593 271.343 179.532 271.007 179.532C270.465 179.532 270.064 179.639 269.803 179.854C269.541 180.069 269.411 180.335 269.411 180.652C269.411 180.904 269.471 181.105 269.593 181.254C269.714 181.403 269.91 181.525 270.181 181.618C270.451 181.702 270.811 181.781 271.259 181.856C272.024 181.977 272.617 182.136 273.037 182.332C273.457 182.519 273.751 182.752 273.919 183.032C274.087 183.312 274.171 183.657 274.171 184.068C274.171 184.507 274.04 184.885 273.779 185.202C273.527 185.51 273.177 185.748 272.729 185.916C272.29 186.084 271.791 186.168 271.231 186.168ZM288.076 186.168C287.385 186.168 286.783 186.009 286.27 185.692C285.756 185.375 285.36 184.927 285.08 184.348C284.8 183.76 284.66 183.074 284.66 182.29C284.66 181.506 284.8 180.825 285.08 180.246C285.36 179.667 285.756 179.219 286.27 178.902C286.783 178.575 287.385 178.412 288.076 178.412C288.626 178.412 289.116 178.515 289.546 178.72C289.975 178.916 290.33 179.205 290.61 179.588C290.89 179.971 291.081 180.437 291.184 180.988L289.952 181.072C289.84 180.577 289.616 180.199 289.28 179.938C288.953 179.667 288.552 179.532 288.076 179.532C287.394 179.532 286.858 179.779 286.466 180.274C286.083 180.759 285.892 181.431 285.892 182.29C285.892 183.149 286.083 183.825 286.466 184.32C286.858 184.805 287.394 185.048 288.076 185.048C288.552 185.048 288.962 184.908 289.308 184.628C289.662 184.348 289.896 183.928 290.008 183.368L291.24 183.452C291.137 184.003 290.941 184.483 290.652 184.894C290.362 185.295 289.998 185.608 289.56 185.832C289.121 186.056 288.626 186.168 288.076 186.168ZM296.274 186.168C295.593 186.168 294.996 186.009 294.482 185.692C293.978 185.375 293.586 184.927 293.306 184.348C293.026 183.76 292.886 183.074 292.886 182.29C292.886 181.497 293.026 180.811 293.306 180.232C293.586 179.653 293.978 179.205 294.482 178.888C294.996 178.571 295.593 178.412 296.274 178.412C296.956 178.412 297.548 178.571 298.052 178.888C298.566 179.205 298.962 179.653 299.242 180.232C299.522 180.811 299.662 181.497 299.662 182.29C299.662 183.074 299.522 183.76 299.242 184.348C298.962 184.927 298.566 185.375 298.052 185.692C297.548 186.009 296.956 186.168 296.274 186.168ZM296.274 185.048C296.956 185.048 297.483 184.805 297.856 184.32C298.239 183.825 298.43 183.149 298.43 182.29C298.43 181.431 298.239 180.759 297.856 180.274C297.483 179.779 296.956 179.532 296.274 179.532C295.593 179.532 295.061 179.779 294.678 180.274C294.305 180.759 294.118 181.431 294.118 182.29C294.118 183.149 294.305 183.825 294.678 184.32C295.061 184.805 295.593 185.048 296.274 185.048ZM301.029 186V178.58H302.107L302.149 180.232L302.009 180.204C302.093 179.653 302.27 179.219 302.541 178.902C302.821 178.575 303.175 178.412 303.605 178.412C304.043 178.412 304.379 178.571 304.613 178.888C304.855 179.205 305.005 179.672 305.061 180.288H304.921C305.005 179.709 305.191 179.252 305.481 178.916C305.779 178.58 306.153 178.412 306.601 178.412C307.198 178.412 307.632 178.617 307.903 179.028C308.173 179.439 308.309 180.12 308.309 181.072V186H307.133V181.24C307.133 180.577 307.063 180.115 306.923 179.854C306.783 179.583 306.563 179.448 306.265 179.448C306.069 179.448 305.896 179.513 305.747 179.644C305.597 179.765 305.476 179.961 305.383 180.232C305.299 180.503 305.257 180.848 305.257 181.268V186H304.081V181.24C304.081 180.605 304.011 180.148 303.871 179.868C303.74 179.588 303.521 179.448 303.213 179.448C303.017 179.448 302.844 179.513 302.695 179.644C302.545 179.765 302.424 179.961 302.331 180.232C302.247 180.503 302.205 180.848 302.205 181.268V186H301.029ZM321.584 186.168C320.884 186.168 320.277 186.009 319.764 185.692C319.26 185.375 318.868 184.927 318.588 184.348C318.317 183.76 318.182 183.074 318.182 182.29C318.182 181.506 318.317 180.825 318.588 180.246C318.868 179.667 319.255 179.219 319.75 178.902C320.254 178.575 320.846 178.412 321.528 178.412C322.172 178.412 322.741 178.566 323.236 178.874C323.73 179.173 324.118 179.611 324.398 180.19C324.678 180.769 324.818 181.473 324.818 182.304V182.654H319.414C319.46 183.447 319.67 184.045 320.044 184.446C320.426 184.847 320.94 185.048 321.584 185.048C322.069 185.048 322.466 184.936 322.774 184.712C323.091 184.479 323.31 184.175 323.432 183.802L324.692 183.9C324.496 184.563 324.122 185.109 323.572 185.538C323.03 185.958 322.368 186.168 321.584 186.168ZM319.414 181.618H323.53C323.474 180.899 323.264 180.372 322.9 180.036C322.536 179.7 322.078 179.532 321.528 179.532C320.958 179.532 320.487 179.709 320.114 180.064C319.75 180.409 319.516 180.927 319.414 181.618ZM328.62 186V178.104C328.62 177.441 328.788 176.937 329.124 176.592C329.47 176.237 329.992 176.06 330.692 176.06H333.072V177.096H330.692C330.403 177.096 330.179 177.189 330.02 177.376C329.871 177.553 329.796 177.796 329.796 178.104V186H328.62ZM326.632 179.616V178.58H332.932V179.616H326.632ZM338.149 186V178.58H339.325V186H338.149ZM335.167 186V184.964H341.887V186H335.167ZM335.307 179.616V178.58H339.325V179.616H335.307ZM338.037 177.418V176.046H339.269V177.418H338.037ZM346.837 186.168C346.147 186.168 345.545 186.009 345.031 185.692C344.518 185.375 344.121 184.927 343.841 184.348C343.561 183.76 343.421 183.074 343.421 182.29C343.421 181.506 343.561 180.825 343.841 180.246C344.121 179.667 344.518 179.219 345.031 178.902C345.545 178.575 346.147 178.412 346.837 178.412C347.388 178.412 347.878 178.515 348.307 178.72C348.737 178.916 349.091 179.205 349.371 179.588C349.651 179.971 349.843 180.437 349.945 180.988L348.713 181.072C348.601 180.577 348.377 180.199 348.041 179.938C347.715 179.667 347.313 179.532 346.837 179.532C346.156 179.532 345.619 179.779 345.227 180.274C344.845 180.759 344.653 181.431 344.653 182.29C344.653 183.149 344.845 183.825 345.227 184.32C345.619 184.805 346.156 185.048 346.837 185.048C347.313 185.048 347.724 184.908 348.069 184.628C348.424 184.348 348.657 183.928 348.769 183.368L350.001 183.452C349.899 184.003 349.703 184.483 349.413 184.894C349.124 185.295 348.76 185.608 348.321 185.832C347.883 186.056 347.388 186.168 346.837 186.168ZM354.938 186V178.58H356.114V186H354.938ZM351.956 186V184.964H358.676V186H351.956ZM352.096 179.616V178.58H356.114V179.616H352.096ZM354.826 177.418V176.046H356.058V177.418H354.826ZM363.556 186.168C362.856 186.168 362.25 186.009 361.736 185.692C361.232 185.375 360.84 184.927 360.56 184.348C360.29 183.76 360.154 183.074 360.154 182.29C360.154 181.506 360.29 180.825 360.56 180.246C360.84 179.667 361.228 179.219 361.722 178.902C362.226 178.575 362.819 178.412 363.5 178.412C364.144 178.412 364.714 178.566 365.208 178.874C365.703 179.173 366.09 179.611 366.37 180.19C366.65 180.769 366.79 181.473 366.79 182.304V182.654H361.386C361.433 183.447 361.643 184.045 362.016 184.446C362.399 184.847 362.912 185.048 363.556 185.048C364.042 185.048 364.438 184.936 364.746 184.712C365.064 184.479 365.283 184.175 365.404 183.802L366.664 183.9C366.468 184.563 366.095 185.109 365.544 185.538C365.003 185.958 364.34 186.168 363.556 186.168ZM361.386 181.618H365.502C365.446 180.899 365.236 180.372 364.872 180.036C364.508 179.7 364.051 179.532 363.5 179.532C362.931 179.532 362.46 179.709 362.086 180.064C361.722 180.409 361.489 180.927 361.386 181.618ZM361.54 177.656L362.842 175.794H364.158L365.46 177.656H364.48L363.388 176.256H363.612L362.52 177.656H361.54ZM368.801 186V178.58H369.879L369.921 180.47L369.781 180.344C369.874 179.905 370.042 179.546 370.285 179.266C370.537 178.977 370.836 178.762 371.181 178.622C371.526 178.482 371.89 178.412 372.273 178.412C372.842 178.412 373.314 178.538 373.687 178.79C374.07 179.042 374.359 179.383 374.555 179.812C374.751 180.232 374.849 180.703 374.849 181.226V186H373.673V181.562C373.673 180.871 373.538 180.349 373.267 179.994C372.996 179.63 372.581 179.448 372.021 179.448C371.638 179.448 371.293 179.532 370.985 179.7C370.677 179.859 370.43 180.097 370.243 180.414C370.066 180.722 369.977 181.105 369.977 181.562V186H368.801ZM380.416 186.168C379.725 186.168 379.123 186.009 378.61 185.692C378.096 185.375 377.7 184.927 377.42 184.348C377.14 183.76 377 183.074 377 182.29C377 181.506 377.14 180.825 377.42 180.246C377.7 179.667 378.096 179.219 378.61 178.902C379.123 178.575 379.725 178.412 380.416 178.412C380.966 178.412 381.456 178.515 381.886 178.72C382.315 178.916 382.67 179.205 382.95 179.588C383.23 179.971 383.421 180.437 383.524 180.988L382.292 181.072C382.18 180.577 381.956 180.199 381.62 179.938C381.293 179.667 380.892 179.532 380.416 179.532C379.734 179.532 379.198 179.779 378.806 180.274C378.423 180.759 378.232 181.431 378.232 182.29C378.232 183.149 378.423 183.825 378.806 184.32C379.198 184.805 379.734 185.048 380.416 185.048C380.892 185.048 381.302 184.908 381.648 184.628C382.002 184.348 382.236 183.928 382.348 183.368L383.58 183.452C383.477 184.003 383.281 184.483 382.992 184.894C382.702 185.295 382.338 185.608 381.9 185.832C381.461 186.056 380.966 186.168 380.416 186.168ZM388.516 186V178.58H389.692V186H388.516ZM385.534 186V184.964H392.254V186H385.534ZM385.674 179.616V178.58H389.692V179.616H385.674ZM388.404 177.418V176.046H389.636V177.418H388.404ZM396.029 186.168C395.562 186.168 395.142 186.084 394.769 185.916C394.395 185.748 394.101 185.515 393.887 185.216C393.672 184.908 393.565 184.553 393.565 184.152C393.565 183.517 393.751 183.027 394.125 182.682C394.507 182.327 395.105 182.071 395.917 181.912L398.409 181.408C398.409 180.773 398.264 180.302 397.975 179.994C397.695 179.686 397.289 179.532 396.757 179.532C396.243 179.532 395.842 179.649 395.553 179.882C395.263 180.106 395.063 180.433 394.951 180.862L393.705 180.764C393.845 180.064 394.176 179.499 394.699 179.07C395.231 178.631 395.917 178.412 396.757 178.412C397.653 178.412 398.348 178.683 398.843 179.224C399.337 179.756 399.585 180.493 399.585 181.436V184.516C399.585 184.684 399.622 184.801 399.697 184.866C399.771 184.931 399.883 184.964 400.033 184.964H400.509V186C400.453 186.009 400.364 186.014 400.243 186.014C400.121 186.023 400.005 186.028 399.893 186.028C399.575 186.028 399.305 185.977 399.081 185.874C398.866 185.771 398.703 185.608 398.591 185.384C398.479 185.151 398.418 184.852 398.409 184.488H398.633C398.567 184.805 398.409 185.095 398.157 185.356C397.914 185.608 397.606 185.809 397.233 185.958C396.859 186.098 396.458 186.168 396.029 186.168ZM396.141 185.132C396.645 185.132 397.065 185.048 397.401 184.88C397.737 184.703 397.989 184.46 398.157 184.152C398.325 183.835 398.409 183.471 398.409 183.06V182.416L396.141 182.864C395.637 182.957 395.287 183.102 395.091 183.298C394.895 183.485 394.797 183.732 394.797 184.04C394.797 184.385 394.913 184.656 395.147 184.852C395.389 185.039 395.721 185.132 396.141 185.132Z" fill="#737373"/>
</g>
</g>
</svg>
