<svg width="1120" height="480" viewBox="0 0 1120 480" fill="none" xmlns="http://www.w3.org/2000/svg">
<rect width="1120" height="480" fill="#09090B"/>
<path d="M750.999 232.8V226.742H755.094C756.066 226.742 756.814 226.592 757.337 226.293C757.898 226.032 758.31 225.508 758.571 224.723L759.357 222.479H757.001L746.456 194.321H754.365L761.713 215.187L768.5 194.321H776.409L764.854 227.023C764.143 229.117 763.04 230.594 761.544 231.454C760.086 232.351 758.198 232.8 755.879 232.8H750.999Z" fill="white"/>
<path d="M722.134 224.386V194.321H727.743L728.36 202.174H727.855C728.154 199.556 728.902 197.593 730.099 196.284C731.333 194.975 733.128 194.321 735.484 194.321H742.215V200.547H736.044C734.623 200.547 733.446 200.79 732.511 201.276C731.576 201.762 730.884 202.492 730.435 203.464C729.987 204.436 729.762 205.651 729.762 207.11V224.386H722.134ZM714.954 224.386V218.328H738.905V224.386H714.954ZM714.954 200.379V194.321H726.677V200.379H714.954Z" fill="white"/>
<path d="M689.847 225.059C688.014 225.059 686.332 224.723 684.798 224.05C683.265 223.377 682.05 222.404 681.152 221.133C680.292 219.861 679.862 218.347 679.862 216.589C679.862 214.047 680.666 212.065 682.274 210.644C683.92 209.223 686.163 208.213 689.005 207.615L698.036 205.652C698.036 203.744 697.643 202.286 696.858 201.276C696.11 200.267 694.876 199.762 693.156 199.762C691.66 199.762 690.501 200.136 689.678 200.884C688.856 201.632 688.313 202.623 688.052 203.857L680.199 203.408C680.76 200.454 682.162 198.098 684.406 196.34C686.687 194.545 689.566 193.648 693.044 193.648C697.382 193.648 700.56 194.751 702.58 196.957C704.636 199.126 705.665 202.174 705.665 206.1V216.702C705.665 217.45 705.795 217.973 706.057 218.272C706.319 218.534 706.712 218.665 707.235 218.665H708.469V224.386C708.245 224.424 707.871 224.461 707.347 224.498C706.824 224.573 706.282 224.611 705.721 224.611C704.225 224.611 702.953 224.349 701.906 223.825C700.859 223.302 700.055 222.535 699.494 221.526C698.971 220.516 698.672 219.301 698.597 217.88H699.438C699.251 219.226 698.747 220.46 697.924 221.582C697.101 222.666 695.998 223.526 694.614 224.162C693.231 224.76 691.642 225.059 689.847 225.059ZM691.417 219.338C692.838 219.338 694.035 219.095 695.007 218.609C695.979 218.085 696.727 217.337 697.251 216.365C697.774 215.355 698.036 214.177 698.036 212.831V211.036L691.361 212.495C690.015 212.794 689.061 213.224 688.5 213.785C687.939 214.346 687.659 215.15 687.659 216.197C687.659 217.169 687.977 217.936 688.613 218.497C689.248 219.057 690.183 219.338 691.417 219.338Z" fill="white"/>
<path d="M658.625 224.386V194.321H666.254V224.386H658.625ZM647.463 224.386V218.328H675.733V224.386H647.463ZM648.024 200.379V194.321H664.852V200.379H648.024ZM658.401 190.619V184H666.142V190.619H658.401Z" fill="white"/>
<path d="M623.814 224.386V194.097C623.814 192.937 623.515 192.077 622.917 191.516C622.318 190.918 621.458 190.619 620.336 190.619H613.83V184.561H621.683C624.936 184.561 627.367 185.384 628.975 187.029C630.62 188.637 631.443 191.049 631.443 194.265V224.386H623.814ZM612.708 224.386V218.328H640.978V224.386H612.708Z" fill="white"/>
<path d="M591.359 224.386V194.321H598.987V224.386H591.359ZM580.196 224.386V218.328H608.467V224.386H580.196ZM580.757 200.379V194.321H597.585V200.379H580.757ZM591.134 190.619V184H598.875V190.619H591.134Z" fill="white"/>
<path d="M562.886 225.059C560.717 225.059 558.885 224.554 557.389 223.545C555.893 222.535 554.753 221.226 553.967 219.618L553.743 224.386H546.451V184.561H554.08V198.584C554.827 197.126 555.949 195.948 557.445 195.05C558.978 194.115 560.792 193.648 562.886 193.648C565.279 193.648 567.373 194.265 569.168 195.499C570.963 196.733 572.347 198.528 573.319 200.884C574.329 203.202 574.834 206.025 574.834 209.354C574.834 212.682 574.329 215.524 573.319 217.88C572.347 220.198 570.963 221.974 569.168 223.208C567.373 224.442 565.279 225.059 562.886 225.059ZM560.698 218.328C562.755 218.328 564.307 217.562 565.354 216.029C566.401 214.458 566.925 212.233 566.925 209.354C566.925 206.437 566.401 204.212 565.354 202.679C564.307 201.145 562.755 200.379 560.698 200.379C559.39 200.379 558.23 200.715 557.221 201.388C556.211 202.062 555.426 203.071 554.865 204.417C554.341 205.764 554.08 207.409 554.08 209.354C554.08 211.261 554.341 212.887 554.865 214.234C555.426 215.58 556.192 216.608 557.165 217.319C558.174 217.992 559.352 218.328 560.698 218.328Z" fill="white"/>
<path d="M525.943 225.059C523.101 225.059 520.615 224.424 518.483 223.152C516.352 221.843 514.687 220.011 513.491 217.655C512.294 215.299 511.696 212.532 511.696 209.354C511.696 206.138 512.294 203.37 513.491 201.052C514.687 198.696 516.352 196.882 518.483 195.611C520.615 194.302 523.101 193.648 525.943 193.648C528.785 193.648 531.272 194.302 533.404 195.611C535.535 196.882 537.199 198.696 538.396 201.052C539.592 203.37 540.191 206.138 540.191 209.354C540.191 212.532 539.592 215.299 538.396 217.655C537.199 220.011 535.535 221.843 533.404 223.152C531.272 224.424 528.785 225.059 525.943 225.059ZM525.943 218.328C527.963 218.328 529.514 217.562 530.599 216.029C531.721 214.458 532.282 212.233 532.282 209.354C532.282 206.437 531.721 204.212 530.599 202.679C529.514 201.145 527.963 200.379 525.943 200.379C523.924 200.379 522.353 201.145 521.232 202.679C520.147 204.212 519.605 206.437 519.605 209.354C519.605 212.233 520.147 214.458 521.232 216.029C522.353 217.562 523.924 218.328 525.943 218.328Z" fill="white"/>
<path d="M477.053 224.386V194.321H483.279L483.504 201.22L482.887 201.052C483.335 198.584 484.083 196.733 485.13 195.499C486.215 194.265 487.561 193.648 489.169 193.648C491.039 193.648 492.385 194.284 493.207 195.555C494.068 196.789 494.647 198.696 494.946 201.276H494.105C494.516 198.771 495.339 196.882 496.573 195.611C497.807 194.302 499.322 193.648 501.116 193.648C503.323 193.648 504.949 194.452 505.996 196.06C507.044 197.63 507.567 200.117 507.567 203.52V224.386H500.443V205.034C500.443 203.09 500.256 201.781 499.882 201.108C499.546 200.435 499.004 200.098 498.256 200.098C497.732 200.098 497.265 200.267 496.853 200.603C496.48 200.94 496.18 201.482 495.956 202.23C495.732 202.94 495.619 203.894 495.619 205.091V224.386H489.001V205.034C489.001 203.165 488.832 201.875 488.496 201.164C488.159 200.454 487.598 200.098 486.813 200.098C486.289 200.098 485.822 200.267 485.411 200.603C484.999 200.94 484.682 201.482 484.457 202.23C484.27 202.94 484.177 203.894 484.177 205.091V224.386H477.053Z" fill="white"/>
<path d="M446 224.386V217.206H454.694V191.741H446V184.561H471.354V191.741H462.659V217.206H471.354V224.386H446Z" fill="white"/>
<path d="M380.338 170.399C379.05 169.46 377.462 168.967 375.838 169.002C374.214 169.037 372.651 169.598 371.41 170.591L346.521 190.799C345.731 191.432 345.096 192.22 344.661 193.109C344.225 193.998 344 194.966 344 195.946V226.263C344 228.05 344.749 229.763 346.083 231.027C347.416 232.29 349.225 233 351.111 233H400.889C402.775 233 404.584 232.29 405.917 231.027C407.251 229.763 408 228.05 408 226.263V201.491M386.667 233V206.052C386.667 205.158 386.292 204.301 385.625 203.67C384.958 203.038 384.054 202.683 383.111 202.683H368.889C367.946 202.683 367.042 203.038 366.375 203.67C365.708 204.301 365.333 205.158 365.333 206.052V233M386.667 182.472H408M397.333 172.366V192.578" stroke="white" stroke-width="6" stroke-linecap="round" stroke-linejoin="round"/>
<path d="M349.96 305.32C348.96 305.32 348.067 305.047 347.28 304.5C346.507 303.94 345.893 303.113 345.44 302.02C344.987 300.913 344.76 299.547 344.76 297.92C344.76 296.387 344.967 295.067 345.38 293.96C345.807 292.853 346.413 292 347.2 291.4C347.987 290.787 348.933 290.48 350.04 290.48C350.907 290.48 351.673 290.673 352.34 291.06C353.02 291.447 353.587 291.987 354.04 292.68C354.493 293.36 354.82 294.147 355.02 295.04L353.22 295.16C352.993 294.28 352.613 293.56 352.08 293C351.56 292.44 350.88 292.16 350.04 292.16C349.307 292.16 348.68 292.387 348.16 292.84C347.64 293.28 347.24 293.933 346.96 294.8C346.693 295.653 346.56 296.693 346.56 297.92C346.56 299.133 346.7 300.167 346.98 301.02C347.26 301.873 347.66 302.527 348.18 302.98C348.713 303.42 349.36 303.64 350.12 303.64C350.8 303.64 351.38 303.467 351.86 303.12C352.353 302.76 352.74 302.267 353.02 301.64C353.3 301 353.453 300.273 353.48 299.46H350.08V297.82H355.08V305H353.48L353.4 301.64L353.88 301.8C353.693 302.48 353.433 303.087 353.1 303.62C352.78 304.153 352.36 304.573 351.84 304.88C351.333 305.173 350.707 305.32 349.96 305.32ZM362.172 305.24C361.172 305.24 360.306 305.013 359.572 304.56C358.852 304.107 358.292 303.467 357.892 302.64C357.506 301.8 357.312 300.82 357.312 299.7C357.312 298.58 357.506 297.607 357.892 296.78C358.292 295.953 358.846 295.313 359.552 294.86C360.272 294.393 361.119 294.16 362.092 294.16C363.012 294.16 363.826 294.38 364.532 294.82C365.239 295.247 365.792 295.873 366.192 296.7C366.592 297.527 366.792 298.533 366.792 299.72V300.22H359.072C359.139 301.353 359.439 302.207 359.972 302.78C360.519 303.353 361.252 303.64 362.172 303.64C362.866 303.64 363.432 303.48 363.872 303.16C364.326 302.827 364.639 302.393 364.812 301.86L366.612 302C366.332 302.947 365.799 303.727 365.012 304.34C364.239 304.94 363.292 305.24 362.172 305.24ZM359.072 298.74H364.952C364.872 297.713 364.572 296.96 364.052 296.48C363.532 296 362.879 295.76 362.092 295.76C361.279 295.76 360.606 296.013 360.072 296.52C359.552 297.013 359.219 297.753 359.072 298.74ZM372.544 305V294.4H373.944L374.104 297.08L373.944 297.04C374.078 296.133 374.364 295.467 374.804 295.04C375.258 294.613 375.858 294.4 376.604 294.4H378.784V295.92H376.624C376.104 295.92 375.664 296.027 375.304 296.24C374.958 296.44 374.691 296.74 374.504 297.14C374.318 297.527 374.224 298.013 374.224 298.6V305H372.544ZM369.784 305V303.52H377.584V305H369.784ZM369.784 295.88V294.4H373.464V295.88H369.784ZM386.157 305.24C385.157 305.24 384.29 305.013 383.557 304.56C382.837 304.107 382.277 303.467 381.877 302.64C381.49 301.8 381.297 300.82 381.297 299.7C381.297 298.58 381.49 297.607 381.877 296.78C382.277 295.953 382.83 295.313 383.537 294.86C384.257 294.393 385.103 294.16 386.077 294.16C386.997 294.16 387.81 294.38 388.517 294.82C389.223 295.247 389.777 295.873 390.177 296.7C390.577 297.527 390.777 298.533 390.777 299.72V300.22H383.057C383.123 301.353 383.423 302.207 383.957 302.78C384.503 303.353 385.237 303.64 386.157 303.64C386.85 303.64 387.417 303.48 387.857 303.16C388.31 302.827 388.623 302.393 388.797 301.86L390.597 302C390.317 302.947 389.783 303.727 388.997 304.34C388.223 304.94 387.277 305.24 386.157 305.24ZM383.057 298.74H388.937C388.857 297.713 388.557 296.96 388.037 296.48C387.517 296 386.863 295.76 386.077 295.76C385.263 295.76 384.59 296.013 384.057 296.52C383.537 297.013 383.203 297.753 383.057 298.74ZM393.649 305V294.4H395.189L395.249 297.1L395.049 296.92C395.182 296.293 395.422 295.78 395.769 295.38C396.129 294.967 396.555 294.66 397.049 294.46C397.542 294.26 398.062 294.16 398.609 294.16C399.422 294.16 400.095 294.34 400.629 294.7C401.175 295.06 401.589 295.547 401.869 296.16C402.149 296.76 402.289 297.433 402.289 298.18V305H400.609V298.66C400.609 297.673 400.415 296.927 400.029 296.42C399.642 295.9 399.049 295.64 398.249 295.64C397.702 295.64 397.209 295.76 396.769 296C396.329 296.227 395.975 296.567 395.709 297.02C395.455 297.46 395.329 298.007 395.329 298.66V305H393.649ZM410.241 305.24C409.254 305.24 408.394 305.013 407.661 304.56C406.928 304.107 406.361 303.467 405.961 302.64C405.561 301.8 405.361 300.82 405.361 299.7C405.361 298.58 405.561 297.607 405.961 296.78C406.361 295.953 406.928 295.313 407.661 294.86C408.394 294.393 409.254 294.16 410.241 294.16C411.028 294.16 411.728 294.307 412.341 294.6C412.954 294.88 413.461 295.293 413.861 295.84C414.261 296.387 414.534 297.053 414.681 297.84L412.921 297.96C412.761 297.253 412.441 296.713 411.961 296.34C411.494 295.953 410.921 295.76 410.241 295.76C409.268 295.76 408.501 296.113 407.941 296.82C407.394 297.513 407.121 298.473 407.121 299.7C407.121 300.927 407.394 301.893 407.941 302.6C408.501 303.293 409.268 303.64 410.241 303.64C410.921 303.64 411.508 303.44 412.001 303.04C412.508 302.64 412.841 302.04 413.001 301.24L414.761 301.36C414.614 302.147 414.334 302.833 413.921 303.42C413.508 303.993 412.988 304.44 412.361 304.76C411.734 305.08 411.028 305.24 410.241 305.24ZM421.813 305V294.4H423.493V305H421.813ZM417.553 305V303.52H427.153V305H417.553ZM417.753 295.88V294.4H423.493V295.88H417.753ZM421.653 292.74V290.78H423.413V292.74H421.653ZM434.125 305.24C433.125 305.24 432.259 305.013 431.525 304.56C430.805 304.107 430.245 303.467 429.845 302.64C429.459 301.8 429.265 300.82 429.265 299.7C429.265 298.58 429.459 297.607 429.845 296.78C430.245 295.953 430.799 295.313 431.505 294.86C432.225 294.393 433.072 294.16 434.045 294.16C434.965 294.16 435.779 294.38 436.485 294.82C437.192 295.247 437.745 295.873 438.145 296.7C438.545 297.527 438.745 298.533 438.745 299.72V300.22H431.025C431.092 301.353 431.392 302.207 431.925 302.78C432.472 303.353 433.205 303.64 434.125 303.64C434.819 303.64 435.385 303.48 435.825 303.16C436.279 302.827 436.592 302.393 436.765 301.86L438.565 302C438.285 302.947 437.752 303.727 436.965 304.34C436.192 304.94 435.245 305.24 434.125 305.24ZM431.025 298.74H436.905C436.825 297.713 436.525 296.96 436.005 296.48C435.485 296 434.832 295.76 434.045 295.76C433.232 295.76 432.559 296.013 432.025 296.52C431.505 297.013 431.172 297.753 431.025 298.74ZM458.13 305.24C457.21 305.24 456.416 305.08 455.75 304.76C455.083 304.44 454.556 304.013 454.17 303.48C453.796 302.933 453.583 302.327 453.53 301.66L455.29 301.54C455.396 302.193 455.683 302.707 456.15 303.08C456.63 303.453 457.29 303.64 458.13 303.64C458.916 303.64 459.523 303.527 459.95 303.3C460.39 303.073 460.61 302.72 460.61 302.24C460.61 301.933 460.536 301.68 460.39 301.48C460.243 301.28 459.97 301.113 459.57 300.98C459.17 300.833 458.583 300.693 457.81 300.56C456.783 300.373 455.976 300.147 455.39 299.88C454.816 299.6 454.41 299.253 454.17 298.84C453.93 298.427 453.81 297.933 453.81 297.36C453.81 296.747 453.963 296.2 454.27 295.72C454.576 295.24 455.03 294.86 455.63 294.58C456.23 294.3 456.963 294.16 457.83 294.16C458.71 294.16 459.443 294.32 460.03 294.64C460.63 294.947 461.103 295.36 461.45 295.88C461.796 296.387 462.023 296.947 462.13 297.56L460.37 297.68C460.29 297.307 460.136 296.98 459.91 296.7C459.696 296.407 459.41 296.18 459.05 296.02C458.703 295.847 458.29 295.76 457.81 295.76C457.036 295.76 456.463 295.913 456.09 296.22C455.716 296.527 455.53 296.907 455.53 297.36C455.53 297.72 455.616 298.007 455.79 298.22C455.963 298.433 456.243 298.607 456.63 298.74C457.016 298.86 457.53 298.973 458.17 299.08C459.263 299.253 460.11 299.48 460.71 299.76C461.31 300.027 461.73 300.36 461.97 300.76C462.21 301.16 462.33 301.653 462.33 302.24C462.33 302.867 462.143 303.407 461.77 303.86C461.41 304.3 460.91 304.64 460.27 304.88C459.643 305.12 458.93 305.24 458.13 305.24ZM470.102 305.24C469.102 305.24 468.235 305.013 467.502 304.56C466.782 304.107 466.222 303.467 465.822 302.64C465.435 301.8 465.242 300.82 465.242 299.7C465.242 298.58 465.435 297.607 465.822 296.78C466.222 295.953 466.775 295.313 467.482 294.86C468.202 294.393 469.049 294.16 470.022 294.16C470.942 294.16 471.755 294.38 472.462 294.82C473.169 295.247 473.722 295.873 474.122 296.7C474.522 297.527 474.722 298.533 474.722 299.72V300.22H467.002C467.069 301.353 467.369 302.207 467.902 302.78C468.449 303.353 469.182 303.64 470.102 303.64C470.795 303.64 471.362 303.48 471.802 303.16C472.255 302.827 472.569 302.393 472.742 301.86L474.542 302C474.262 302.947 473.729 303.727 472.942 304.34C472.169 304.94 471.222 305.24 470.102 305.24ZM467.002 298.74H472.882C472.802 297.713 472.502 296.96 471.982 296.48C471.462 296 470.809 295.76 470.022 295.76C469.209 295.76 468.535 296.013 468.002 296.52C467.482 297.013 467.149 297.753 467.002 298.74ZM481.174 305.24C480.121 305.24 479.281 304.887 478.654 304.18C478.027 303.46 477.714 302.473 477.714 301.22V294.4H479.394V300.76C479.394 301.787 479.574 302.547 479.934 303.04C480.307 303.52 480.874 303.76 481.634 303.76C482.461 303.76 483.114 303.493 483.594 302.96C484.074 302.413 484.314 301.667 484.314 300.72V294.4H485.994V305H484.394V302.38L484.654 302.52C484.441 303.387 484.034 304.06 483.434 304.54C482.834 305.007 482.081 305.24 481.174 305.24ZM494.106 305.24C493.186 305.24 492.393 305.08 491.726 304.76C491.06 304.44 490.533 304.013 490.146 303.48C489.773 302.933 489.56 302.327 489.506 301.66L491.266 301.54C491.373 302.193 491.66 302.707 492.126 303.08C492.606 303.453 493.266 303.64 494.106 303.64C494.893 303.64 495.5 303.527 495.926 303.3C496.366 303.073 496.586 302.72 496.586 302.24C496.586 301.933 496.513 301.68 496.366 301.48C496.22 301.28 495.946 301.113 495.546 300.98C495.146 300.833 494.56 300.693 493.786 300.56C492.76 300.373 491.953 300.147 491.366 299.88C490.793 299.6 490.386 299.253 490.146 298.84C489.906 298.427 489.786 297.933 489.786 297.36C489.786 296.747 489.94 296.2 490.246 295.72C490.553 295.24 491.006 294.86 491.606 294.58C492.206 294.3 492.94 294.16 493.806 294.16C494.686 294.16 495.42 294.32 496.006 294.64C496.606 294.947 497.08 295.36 497.426 295.88C497.773 296.387 498 296.947 498.106 297.56L496.346 297.68C496.266 297.307 496.113 296.98 495.886 296.7C495.673 296.407 495.386 296.18 495.026 296.02C494.68 295.847 494.266 295.76 493.786 295.76C493.013 295.76 492.44 295.913 492.066 296.22C491.693 296.527 491.506 296.907 491.506 297.36C491.506 297.72 491.593 298.007 491.766 298.22C491.94 298.433 492.22 298.607 492.606 298.74C492.993 298.86 493.506 298.973 494.146 299.08C495.24 299.253 496.086 299.48 496.686 299.76C497.286 300.027 497.706 300.36 497.946 300.76C498.186 301.16 498.306 301.653 498.306 302.24C498.306 302.867 498.12 303.407 497.746 303.86C497.386 304.3 496.886 304.64 496.246 304.88C495.62 305.12 494.906 305.24 494.106 305.24ZM517.751 305V294.4H519.431V305H517.751ZM513.491 305V303.52H523.091V305H513.491ZM513.691 295.88V294.4H519.431V295.88H513.691ZM517.591 292.74V290.78H519.351V292.74H517.591ZM524.683 305V294.4H526.223L526.283 296.76L526.083 296.72C526.203 295.933 526.456 295.313 526.843 294.86C527.243 294.393 527.749 294.16 528.363 294.16C528.989 294.16 529.469 294.387 529.803 294.84C530.149 295.293 530.363 295.96 530.443 296.84H530.243C530.363 296.013 530.629 295.36 531.043 294.88C531.469 294.4 532.003 294.16 532.643 294.16C533.496 294.16 534.116 294.453 534.503 295.04C534.889 295.627 535.083 296.6 535.083 297.96V305H533.403V298.2C533.403 297.253 533.303 296.593 533.103 296.22C532.903 295.833 532.589 295.64 532.163 295.64C531.883 295.64 531.636 295.733 531.423 295.92C531.209 296.093 531.036 296.373 530.903 296.76C530.783 297.147 530.723 297.64 530.723 298.24V305H529.043V298.2C529.043 297.293 528.943 296.64 528.743 296.24C528.556 295.84 528.243 295.64 527.803 295.64C527.523 295.64 527.276 295.733 527.063 295.92C526.849 296.093 526.676 296.373 526.543 296.76C526.423 297.147 526.363 297.64 526.363 298.24V305H524.683ZM541.875 305.24C540.902 305.24 540.048 305.013 539.315 304.56C538.595 304.107 538.035 303.467 537.635 302.64C537.235 301.8 537.035 300.82 537.035 299.7C537.035 298.567 537.235 297.587 537.635 296.76C538.035 295.933 538.595 295.293 539.315 294.84C540.048 294.387 540.902 294.16 541.875 294.16C542.848 294.16 543.695 294.387 544.415 294.84C545.148 295.293 545.715 295.933 546.115 296.76C546.515 297.587 546.715 298.567 546.715 299.7C546.715 300.82 546.515 301.8 546.115 302.64C545.715 303.467 545.148 304.107 544.415 304.56C543.695 305.013 542.848 305.24 541.875 305.24ZM541.875 303.64C542.848 303.64 543.602 303.293 544.135 302.6C544.682 301.893 544.955 300.927 544.955 299.7C544.955 298.473 544.682 297.513 544.135 296.82C543.602 296.113 542.848 295.76 541.875 295.76C540.902 295.76 540.142 296.113 539.595 296.82C539.062 297.513 538.795 298.473 538.795 299.7C538.795 300.927 539.062 301.893 539.595 302.6C540.142 303.293 540.902 303.64 541.875 303.64ZM541.115 293L542.435 290.44H544.315L542.515 293H541.115ZM552.807 305L548.867 294.4H550.707L553.867 303.28L557.027 294.4H558.867L554.927 305H552.807ZM566.039 305.24C565.039 305.24 564.173 305.013 563.439 304.56C562.719 304.107 562.159 303.467 561.759 302.64C561.373 301.8 561.179 300.82 561.179 299.7C561.179 298.58 561.373 297.607 561.759 296.78C562.159 295.953 562.713 295.313 563.419 294.86C564.139 294.393 564.986 294.16 565.959 294.16C566.879 294.16 567.693 294.38 568.399 294.82C569.106 295.247 569.659 295.873 570.059 296.7C570.459 297.527 570.659 298.533 570.659 299.72V300.22H562.939C563.006 301.353 563.306 302.207 563.839 302.78C564.386 303.353 565.119 303.64 566.039 303.64C566.733 303.64 567.299 303.48 567.739 303.16C568.193 302.827 568.506 302.393 568.679 301.86L570.479 302C570.199 302.947 569.666 303.727 568.879 304.34C568.106 304.94 567.159 305.24 566.039 305.24ZM562.939 298.74H568.819C568.739 297.713 568.439 296.96 567.919 296.48C567.399 296 566.746 295.76 565.959 295.76C565.146 295.76 564.473 296.013 563.939 296.52C563.419 297.013 563.086 297.753 562.939 298.74ZM577.712 305V294.4H579.392V305H577.712ZM573.452 305V303.52H583.052V305H573.452ZM573.652 295.88V294.4H579.392V295.88H573.652ZM577.552 292.74V290.78H579.312V292.74H577.552ZM590.044 305.24C589.124 305.24 588.33 305.08 587.664 304.76C586.997 304.44 586.47 304.013 586.084 303.48C585.71 302.933 585.497 302.327 585.444 301.66L587.204 301.54C587.31 302.193 587.597 302.707 588.064 303.08C588.544 303.453 589.204 303.64 590.044 303.64C590.83 303.64 591.437 303.527 591.864 303.3C592.304 303.073 592.524 302.72 592.524 302.24C592.524 301.933 592.45 301.68 592.304 301.48C592.157 301.28 591.884 301.113 591.484 300.98C591.084 300.833 590.497 300.693 589.724 300.56C588.697 300.373 587.89 300.147 587.304 299.88C586.73 299.6 586.324 299.253 586.084 298.84C585.844 298.427 585.724 297.933 585.724 297.36C585.724 296.747 585.877 296.2 586.184 295.72C586.49 295.24 586.944 294.86 587.544 294.58C588.144 294.3 588.877 294.16 589.744 294.16C590.624 294.16 591.357 294.32 591.944 294.64C592.544 294.947 593.017 295.36 593.364 295.88C593.71 296.387 593.937 296.947 594.044 297.56L592.284 297.68C592.204 297.307 592.05 296.98 591.824 296.7C591.61 296.407 591.324 296.18 590.964 296.02C590.617 295.847 590.204 295.76 589.724 295.76C588.95 295.76 588.377 295.913 588.004 296.22C587.63 296.527 587.444 296.907 587.444 297.36C587.444 297.72 587.53 298.007 587.704 298.22C587.877 298.433 588.157 298.607 588.544 298.74C588.93 298.86 589.444 298.973 590.084 299.08C591.177 299.253 592.024 299.48 592.624 299.76C593.224 300.027 593.644 300.36 593.884 300.76C594.124 301.16 594.244 301.653 594.244 302.24C594.244 302.867 594.057 303.407 593.684 303.86C593.324 304.3 592.824 304.64 592.184 304.88C591.557 305.12 590.844 305.24 590.044 305.24ZM614.108 305.24C613.121 305.24 612.261 305.013 611.528 304.56C610.795 304.107 610.228 303.467 609.828 302.64C609.428 301.8 609.228 300.82 609.228 299.7C609.228 298.58 609.428 297.607 609.828 296.78C610.228 295.953 610.795 295.313 611.528 294.86C612.261 294.393 613.121 294.16 614.108 294.16C614.895 294.16 615.595 294.307 616.208 294.6C616.821 294.88 617.328 295.293 617.728 295.84C618.128 296.387 618.401 297.053 618.548 297.84L616.788 297.96C616.628 297.253 616.308 296.713 615.828 296.34C615.361 295.953 614.788 295.76 614.108 295.76C613.135 295.76 612.368 296.113 611.808 296.82C611.261 297.513 610.988 298.473 610.988 299.7C610.988 300.927 611.261 301.893 611.808 302.6C612.368 303.293 613.135 303.64 614.108 303.64C614.788 303.64 615.375 303.44 615.868 303.04C616.375 302.64 616.708 302.04 616.868 301.24L618.628 301.36C618.481 302.147 618.201 302.833 617.788 303.42C617.375 303.993 616.855 304.44 616.228 304.76C615.601 305.08 614.895 305.24 614.108 305.24ZM625.82 305.24C624.847 305.24 623.994 305.013 623.26 304.56C622.54 304.107 621.98 303.467 621.58 302.64C621.18 301.8 620.98 300.82 620.98 299.7C620.98 298.567 621.18 297.587 621.58 296.76C621.98 295.933 622.54 295.293 623.26 294.84C623.994 294.387 624.847 294.16 625.82 294.16C626.794 294.16 627.64 294.387 628.36 294.84C629.094 295.293 629.66 295.933 630.06 296.76C630.46 297.587 630.66 298.567 630.66 299.7C630.66 300.82 630.46 301.8 630.06 302.64C629.66 303.467 629.094 304.107 628.36 304.56C627.64 305.013 626.794 305.24 625.82 305.24ZM625.82 303.64C626.794 303.64 627.547 303.293 628.08 302.6C628.627 301.893 628.9 300.927 628.9 299.7C628.9 298.473 628.627 297.513 628.08 296.82C627.547 296.113 626.794 295.76 625.82 295.76C624.847 295.76 624.087 296.113 623.54 296.82C623.007 297.513 622.74 298.473 622.74 299.7C622.74 300.927 623.007 301.893 623.54 302.6C624.087 303.293 624.847 303.64 625.82 303.64ZM632.613 305V294.4H634.153L634.213 296.76L634.013 296.72C634.133 295.933 634.386 295.313 634.773 294.86C635.173 294.393 635.679 294.16 636.293 294.16C636.919 294.16 637.399 294.387 637.733 294.84C638.079 295.293 638.293 295.96 638.373 296.84H638.173C638.293 296.013 638.559 295.36 638.973 294.88C639.399 294.4 639.933 294.16 640.573 294.16C641.426 294.16 642.046 294.453 642.433 295.04C642.819 295.627 643.013 296.6 643.013 297.96V305H641.333V298.2C641.333 297.253 641.233 296.593 641.033 296.22C640.833 295.833 640.519 295.64 640.093 295.64C639.813 295.64 639.566 295.733 639.353 295.92C639.139 296.093 638.966 296.373 638.833 296.76C638.713 297.147 638.653 297.64 638.653 298.24V305H636.973V298.2C636.973 297.293 636.873 296.64 636.673 296.24C636.486 295.84 636.173 295.64 635.733 295.64C635.453 295.64 635.206 295.733 634.993 295.92C634.779 296.093 634.606 296.373 634.473 296.76C634.353 297.147 634.293 297.64 634.293 298.24V305H632.613ZM661.977 305.24C660.977 305.24 660.11 305.013 659.377 304.56C658.657 304.107 658.097 303.467 657.697 302.64C657.31 301.8 657.117 300.82 657.117 299.7C657.117 298.58 657.31 297.607 657.697 296.78C658.097 295.953 658.65 295.313 659.357 294.86C660.077 294.393 660.924 294.16 661.897 294.16C662.817 294.16 663.63 294.38 664.337 294.82C665.044 295.247 665.597 295.873 665.997 296.7C666.397 297.527 666.597 298.533 666.597 299.72V300.22H658.877C658.944 301.353 659.244 302.207 659.777 302.78C660.324 303.353 661.057 303.64 661.977 303.64C662.67 303.64 663.237 303.48 663.677 303.16C664.13 302.827 664.444 302.393 664.617 301.86L666.417 302C666.137 302.947 665.604 303.727 664.817 304.34C664.044 304.94 663.097 305.24 661.977 305.24ZM658.877 298.74H664.757C664.677 297.713 664.377 296.96 663.857 296.48C663.337 296 662.684 295.76 661.897 295.76C661.084 295.76 660.41 296.013 659.877 296.52C659.357 297.013 659.024 297.753 658.877 298.74ZM672.029 305V293.72C672.029 292.773 672.269 292.053 672.749 291.56C673.242 291.053 673.989 290.8 674.989 290.8H678.389V292.28H674.989C674.576 292.28 674.256 292.413 674.029 292.68C673.816 292.933 673.709 293.28 673.709 293.72V305H672.029ZM669.189 295.88V294.4H678.189V295.88H669.189ZM685.641 305V294.4H687.321V305H685.641ZM681.381 305V303.52H690.981V305H681.381ZM681.581 295.88V294.4H687.321V295.88H681.581ZM685.481 292.74V290.78H687.241V292.74H685.481ZM698.053 305.24C697.067 305.24 696.207 305.013 695.473 304.56C694.74 304.107 694.173 303.467 693.773 302.64C693.373 301.8 693.173 300.82 693.173 299.7C693.173 298.58 693.373 297.607 693.773 296.78C694.173 295.953 694.74 295.313 695.473 294.86C696.207 294.393 697.067 294.16 698.053 294.16C698.84 294.16 699.54 294.307 700.153 294.6C700.767 294.88 701.273 295.293 701.673 295.84C702.073 296.387 702.347 297.053 702.493 297.84L700.733 297.96C700.573 297.253 700.253 296.713 699.773 296.34C699.307 295.953 698.733 295.76 698.053 295.76C697.08 295.76 696.313 296.113 695.753 296.82C695.207 297.513 694.933 298.473 694.933 299.7C694.933 300.927 695.207 301.893 695.753 302.6C696.313 303.293 697.08 303.64 698.053 303.64C698.733 303.64 699.32 303.44 699.813 303.04C700.32 302.64 700.653 302.04 700.813 301.24L702.573 301.36C702.427 302.147 702.147 302.833 701.733 303.42C701.32 303.993 700.8 304.44 700.173 304.76C699.547 305.08 698.84 305.24 698.053 305.24ZM709.626 305V294.4H711.306V305H709.626ZM705.366 305V303.52H714.966V305H705.366ZM705.566 295.88V294.4H711.306V295.88H705.566ZM709.466 292.74V290.78H711.226V292.74H709.466ZM721.938 305.24C720.938 305.24 720.071 305.013 719.338 304.56C718.618 304.107 718.058 303.467 717.658 302.64C717.271 301.8 717.078 300.82 717.078 299.7C717.078 298.58 717.271 297.607 717.658 296.78C718.058 295.953 718.611 295.313 719.318 294.86C720.038 294.393 720.884 294.16 721.858 294.16C722.778 294.16 723.591 294.38 724.298 294.82C725.004 295.247 725.558 295.873 725.958 296.7C726.358 297.527 726.558 298.533 726.558 299.72V300.22H718.838C718.904 301.353 719.204 302.207 719.738 302.78C720.284 303.353 721.018 303.64 721.938 303.64C722.631 303.64 723.198 303.48 723.638 303.16C724.091 302.827 724.404 302.393 724.578 301.86L726.378 302C726.098 302.947 725.564 303.727 724.778 304.34C724.004 304.94 723.058 305.24 721.938 305.24ZM718.838 298.74H724.718C724.638 297.713 724.338 296.96 723.818 296.48C723.298 296 722.644 295.76 721.858 295.76C721.044 295.76 720.371 296.013 719.838 296.52C719.318 297.013 718.984 297.753 718.838 298.74ZM719.058 293.08L720.918 290.42H722.798L724.658 293.08H723.258L721.698 291.08H722.018L720.458 293.08H719.058ZM729.43 305V294.4H730.97L731.03 297.1L730.83 296.92C730.963 296.293 731.203 295.78 731.55 295.38C731.91 294.967 732.337 294.66 732.83 294.46C733.323 294.26 733.843 294.16 734.39 294.16C735.203 294.16 735.877 294.34 736.41 294.7C736.957 295.06 737.37 295.547 737.65 296.16C737.93 296.76 738.07 297.433 738.07 298.18V305H736.39V298.66C736.39 297.673 736.197 296.927 735.81 296.42C735.423 295.9 734.83 295.64 734.03 295.64C733.483 295.64 732.99 295.76 732.55 296C732.11 296.227 731.757 296.567 731.49 297.02C731.237 297.46 731.11 298.007 731.11 298.66V305H729.43ZM746.022 305.24C745.036 305.24 744.176 305.013 743.442 304.56C742.709 304.107 742.142 303.467 741.742 302.64C741.342 301.8 741.142 300.82 741.142 299.7C741.142 298.58 741.342 297.607 741.742 296.78C742.142 295.953 742.709 295.313 743.442 294.86C744.176 294.393 745.036 294.16 746.022 294.16C746.809 294.16 747.509 294.307 748.122 294.6C748.736 294.88 749.242 295.293 749.642 295.84C750.042 296.387 750.316 297.053 750.462 297.84L748.702 297.96C748.542 297.253 748.222 296.713 747.742 296.34C747.276 295.953 746.702 295.76 746.022 295.76C745.049 295.76 744.282 296.113 743.722 296.82C743.176 297.513 742.902 298.473 742.902 299.7C742.902 300.927 743.176 301.893 743.722 302.6C744.282 303.293 745.049 303.64 746.022 303.64C746.702 303.64 747.289 303.44 747.782 303.04C748.289 302.64 748.622 302.04 748.782 301.24L750.542 301.36C750.396 302.147 750.116 302.833 749.702 303.42C749.289 303.993 748.769 304.44 748.142 304.76C747.516 305.08 746.809 305.24 746.022 305.24ZM757.594 305V294.4H759.274V305H757.594ZM753.334 305V303.52H762.934V305H753.334ZM753.534 295.88V294.4H759.274V295.88H753.534ZM757.434 292.74V290.78H759.194V292.74H757.434ZM768.327 305.24C767.66 305.24 767.06 305.12 766.527 304.88C765.993 304.64 765.573 304.307 765.267 303.88C764.96 303.44 764.807 302.933 764.807 302.36C764.807 301.453 765.073 300.753 765.607 300.26C766.153 299.753 767.007 299.387 768.167 299.16L771.727 298.44C771.727 297.533 771.52 296.86 771.107 296.42C770.707 295.98 770.127 295.76 769.367 295.76C768.633 295.76 768.06 295.927 767.647 296.26C767.233 296.58 766.947 297.047 766.787 297.66L765.007 297.52C765.207 296.52 765.68 295.713 766.427 295.1C767.187 294.473 768.167 294.16 769.367 294.16C770.647 294.16 771.64 294.547 772.347 295.32C773.053 296.08 773.407 297.133 773.407 298.48V302.88C773.407 303.12 773.46 303.287 773.567 303.38C773.673 303.473 773.833 303.52 774.047 303.52H774.727V305C774.647 305.013 774.52 305.02 774.347 305.02C774.173 305.033 774.007 305.04 773.847 305.04C773.393 305.04 773.007 304.967 772.687 304.82C772.38 304.673 772.147 304.44 771.987 304.12C771.827 303.787 771.74 303.36 771.727 302.84H772.047C771.953 303.293 771.727 303.707 771.367 304.08C771.02 304.44 770.58 304.727 770.047 304.94C769.513 305.14 768.94 305.24 768.327 305.24ZM768.487 303.76C769.207 303.76 769.807 303.64 770.287 303.4C770.767 303.147 771.127 302.8 771.367 302.36C771.607 301.907 771.727 301.387 771.727 300.8V299.88L768.487 300.52C767.767 300.653 767.267 300.86 766.987 301.14C766.707 301.407 766.567 301.76 766.567 302.2C766.567 302.693 766.733 303.08 767.067 303.36C767.413 303.627 767.887 303.76 768.487 303.76Z" fill="#737373"/>
</svg>
